<svg xmlns="http://www.w3.org/2000/svg" viewBox="0 0 1280 340" width="1280" height="340" role="img" aria-label="repo-glowup — Give any repo a polished GitHub presence">
  <defs>
    <linearGradient id="bg" x1="0" y1="0" x2="0.3" y2="1"><stop offset="0" stop-color="#0E1426"/><stop offset="0.55" stop-color="#0A0E1C"/><stop offset="1" stop-color="#070910"/></linearGradient>
    <radialGradient id="glowA" cx="0.5" cy="0.5" r="0.5"><stop offset="0" stop-color="#7C5CE0" stop-opacity="0.42"/><stop offset="1" stop-color="#7C5CE0" stop-opacity="0"/></radialGradient>
    <radialGradient id="glowB" cx="0.5" cy="0.5" r="0.5"><stop offset="0" stop-color="#22D3EE" stop-opacity="0.5"/><stop offset="1" stop-color="#22D3EE" stop-opacity="0"/></radialGradient>
    <pattern id="dots" width="34" height="34" patternUnits="userSpaceOnUse"><circle cx="2" cy="2" r="1.4" fill="#C4B6F1" opacity="0.05"/></pattern>
  </defs>
  <clipPath id="r"><rect width="1280" height="340" rx="24"/></clipPath>
  <g clip-path="url(#r)">
    <rect width="1280" height="340" fill="url(#bg)"/>
    <rect width="1280" height="340" fill="url(#dots)"/>
    <circle cx="150" cy="100" r="306" fill="url(#glowA)"/>
    <circle cx="150" cy="85" r="153" fill="url(#glowB)"/>
    <polygon points="80,250 150,285 150,303 80,268" fill="#241A57"/>
    <polygon points="220,250 150,285 150,303 220,268" fill="#19123D"/>
    <polygon points="150,215 220,250 150,285 80,250" fill="#4B4375"/>
    <polygon points="80,224 150,259 150,277 80,242" fill="#392A86"/>
    <polygon points="220,224 150,259 150,277 220,242" fill="#281D5E"/>
    <polygon points="150,189 220,224 150,259 80,224" fill="#5D509C"/>
    <polygon points="80,198 150,233 150,251 80,216" fill="#553CBE"/>
    <polygon points="220,198 150,233 150,251 220,216" fill="#3B2A85"/>
    <polygon points="150,163 220,198 150,233 80,198" fill="#745FCA"/>
    <polygon points="80,172 150,207 150,225 80,190" fill="#7C5CE0"/>
    <polygon points="220,172 150,207 150,225 220,190" fill="#57409D"/>
    <polygon points="150,137 220,172 150,207 80,172" fill="#9479E6"/>
    <polygon points="80,146 150,181 150,199 80,164" fill="#A586F2"/>
    <polygon points="220,146 150,181 150,199 220,164" fill="#735EA9"/>
    <polygon points="150,111 220,146 150,181 80,146" fill="#B59CF4"/>
    <polygon points="80,120 150,155 150,173 80,138" fill="#22D3EE"/>
    <polygon points="220,120 150,155 150,173 220,138" fill="#1894A7"/>
    <polygon points="150,85 220,120 150,155 80,120" fill="#4ADBF1"/>
    <polygon points="150,85 220,120 150,155 80,120" fill="none" stroke="#6FE2F4" stroke-width="2" opacity="0.9"/>
  <text x="300" y="128" font-family="'Fira Code', 'DejaVu Sans Mono', ui-monospace, monospace" font-size="20" letter-spacing="5" fill="#B09DEC">CLAUDE CODE PLUGIN</text>
  <text x="300" y="206" font-family="Cantarell, 'Segoe UI', 'Noto Sans', sans-serif" font-weight="800" font-size="78" fill="#F4F7FF">repo-glowup</text>
  <text x="300" y="252" font-family="Cantarell, 'Segoe UI', 'Noto Sans', sans-serif" font-size="27" fill="#AEB9D6">Give any repo a polished GitHub presence</text>
  <text x="300" y="290" font-family="'Fira Code', 'DejaVu Sans Mono', ui-monospace, monospace" font-size="22" fill="#6E7A9C">/plugin install repo-glowup@bearyjd</text>
  </g>
</svg>
